# xmcd
#
# Track frame offsets: 
#        150
#        24620
#        45610
#        80680
#        110387
#        136775
#        167425
#        177312
#        192100
#        205612
#
# Disc length: 3065 seconds
#
# Revision: 0
# Processed by: cddbd v1.5.1PL0 Copyright (c) Steve Scherf et al.
# Submitted via: ExactAudioCopy v0.95a4
#
DISCID=790bf70a
DTITLE=Paul Kossoff - Paul Kossoff With Back Street Crawler and Free CD2
DYEAR=1968
DGENRE=Blues
TTITLE0=Jason Blue
TTITLE1=Rock´n Roll Junkie
TTITLE2=Molten  Gold
TTITLE3=The Hunter
TTITLE4=We Won
TTITLE5=Bird Song
TTITLE6=Morning Sad Morning
TTITLE7=Broad Daylight
TTITLE8=Songs Of Yesterday
TTITLE9=All Right Now
EXTD=
EXTT0=
EXTT1=
EXTT2=
EXTT3=
EXTT4=
EXTT5=
EXTT6=
EXTT7=
EXTT8=
EXTT9=
PLAYORDER=
